<?xml version="1.0" encoding="utf-8"?>
<!-- Generator: Adobe Illustrator 16.0.0, SVG Export Plug-In . SVG Version: 6.00 Build 0)  -->
<!DOCTYPE svg PUBLIC "-//W3C//DTD SVG 1.1//EN" "http://www.w3.org/Graphics/SVG/1.1/DTD/svg11.dtd">
<svg version="1.1" id="Layer_1" xmlns="http://www.w3.org/2000/svg" xmlns:xlink="http://www.w3.org/1999/xlink" x="0px" y="0px"
	 width="800px" height="500px" viewBox="0 0 800 500" enable-background="new 0 0 800 500" xml:space="preserve">
<rect fill="#15181E" width="800" height="500"/>
<g opacity="0.5">
	<path d="M187.546,118.485l-6.417-12.204h-0.251h-8.304v12.204h-11.512V74.389h19.815c11.7,0,18.368,5.662,18.368,15.475
		c0,6.667-2.768,11.574-7.863,14.216l9.184,14.405H187.546z M172.575,97.098h8.366c4.655,0,7.36-2.39,7.36-6.856
		c0-4.341-2.705-6.668-7.36-6.668h-8.366V97.098z"/>
	<path d="M235.98,110.685h-19.06l-3.083,7.8h-11.826l18.935-44.097h11.826l18.494,44.097H239L235.98,110.685z M232.583,101.878
		l-6.039-15.727l-6.164,15.727H232.583z"/>
	<path d="M283.219,95.965h9.939v17.362c-4.718,3.271-12.204,5.662-18.368,5.662c-13.462,0-23.59-9.688-23.59-22.52
		c0-12.833,10.379-22.395,24.344-22.395c6.605,0,13.587,2.517,18.117,6.542l-6.542,8.052c-3.145-2.957-7.611-4.844-11.637-4.844
		c-7.108,0-12.456,5.473-12.456,12.644c0,7.234,5.41,12.707,12.581,12.707c2.202,0,4.97-0.755,7.611-2.076V95.965z"/>
	<path d="M310.894,74.389l20.004,26.546V74.389h10.694v44.097h-10.064l-20.004-26.42v26.42h-10.757V74.389H310.894z"/>
	<path d="M379.584,110.685h-19.061l-3.082,7.8h-11.826l18.935-44.097h11.826l18.494,44.097h-12.267L379.584,110.685z
		 M376.187,101.878l-6.039-15.727l-6.165,15.727H376.187z"/>
	<path d="M425.312,118.485l-6.416-12.204h-0.251h-8.304v12.204H398.83V74.389h19.815c11.7,0,18.368,5.662,18.368,15.475
		c0,6.667-2.768,11.574-7.863,14.216l9.185,14.405H425.312z M410.341,97.098h8.367c4.654,0,7.359-2.39,7.359-6.856
		c0-4.341-2.705-6.668-7.359-6.668h-8.367V97.098z"/>
	<path d="M460.537,83.259c-2.768,0-4.593,1.006-4.593,3.019c0,7.297,23.213,3.145,23.213,18.998c0,8.996-7.927,13.587-17.74,13.587
		c-7.359,0-15.034-2.705-20.317-7.045l4.466-8.996c4.529,3.9,11.386,6.668,15.979,6.668c3.396,0,5.535-1.258,5.535-3.585
		c0-7.486-23.212-2.957-23.212-18.557c0-8.24,6.982-13.461,17.613-13.461c6.479,0,13.021,2.013,17.613,4.97l-4.341,9.121
		C470.099,85.334,464.186,83.259,460.537,83.259z"/>
	<path d="M501.171,83.259c-2.768,0-4.593,1.006-4.593,3.019c0,7.297,23.213,3.145,23.213,18.998c0,8.996-7.927,13.587-17.74,13.587
		c-7.359,0-15.034-2.705-20.317-7.045l4.466-8.996c4.529,3.9,11.386,6.668,15.978,6.668c3.397,0,5.536-1.258,5.536-3.585
		c0-7.486-23.212-2.957-23.212-18.557c0-8.24,6.982-13.461,17.613-13.461c6.479,0,13.021,2.013,17.613,4.97l-4.341,9.121
		C510.732,85.334,504.819,83.259,501.171,83.259z"/>
	<path d="M570.49,96.405c0,12.896-10.191,22.583-23.842,22.583s-23.841-9.688-23.841-22.583c0-12.832,10.19-22.331,23.841-22.331
		S570.49,83.636,570.49,96.405z M534.634,96.469c0,7.171,5.599,12.707,12.142,12.707c6.604,0,11.889-5.536,11.889-12.707
		c0-7.171-5.284-12.582-11.889-12.582C540.17,83.887,534.634,89.297,534.634,96.469z"/>
	<path d="M586.338,74.389l20.004,26.546V74.389h10.694v44.097h-10.064l-20.005-26.42v26.42H576.21V74.389H586.338z"/>
	<path d="M641.817,83.259c-2.768,0-4.592,1.006-4.592,3.019c0,7.297,23.212,3.145,23.212,18.998c0,8.996-7.927,13.587-17.74,13.587
		c-7.359,0-15.034-2.705-20.317-7.045l4.466-8.996c4.529,3.9,11.386,6.668,15.979,6.668c3.396,0,5.536-1.258,5.536-3.585
		c0-7.486-23.213-2.957-23.213-18.557c0-8.24,6.982-13.461,17.613-13.461c6.479,0,13.021,2.013,17.613,4.97l-4.34,9.121
		C651.379,85.334,645.466,83.259,641.817,83.259z"/>
</g>
</svg>
