<?xml version="1.0" encoding="utf-8"?>
<!-- Generator: Adobe Illustrator 16.0.0, SVG Export Plug-In . SVG Version: 6.00 Build 0)  -->
<!DOCTYPE svg PUBLIC "-//W3C//DTD SVG 1.1//EN" "http://www.w3.org/Graphics/SVG/1.1/DTD/svg11.dtd">
<svg version="1.1" id="Layer_1" xmlns="http://www.w3.org/2000/svg" xmlns:xlink="http://www.w3.org/1999/xlink" x="0px" y="0px"
	 width="1000px" height="500px" viewBox="0 0 1000 500" enable-background="new 0 0 1000 500" xml:space="preserve">
<rect fill="#1D232B" stroke="#000000" stroke-miterlimit="10" width="1000" height="500"/>
<g opacity="0.5">
	<path d="M152.74,119.481l-7.141-13.582h-0.28h-9.241v13.582h-12.811V70.406h22.052c13.021,0,20.442,6.301,20.442,17.222
		c0,7.421-3.08,12.881-8.751,15.822l10.221,16.032H152.74z M136.079,95.678h9.311c5.181,0,8.191-2.66,8.191-7.63
		c0-4.831-3.01-7.421-8.191-7.421h-9.311V95.678z"/>
	<path d="M227.64,110.8h-21.212l-3.43,8.681h-13.162l21.072-49.075h13.161l20.583,49.075H231L227.64,110.8z M223.859,100.999
		l-6.721-17.502l-6.86,17.502H223.859z"/>
	<path d="M302.539,94.418H313.6v19.322c-5.25,3.641-13.582,6.301-20.442,6.301c-14.981,0-26.252-10.781-26.252-25.063
		c0-14.282,11.551-24.923,27.093-24.923c7.351,0,15.122,2.8,20.162,7.281l-7.281,8.961c-3.5-3.29-8.471-5.391-12.952-5.391
		c-7.911,0-13.861,6.091-13.861,14.072c0,8.051,6.021,14.141,14.001,14.141c2.45,0,5.531-0.84,8.471-2.31V94.418z"/>
	<path d="M354.335,70.406l22.262,29.543V70.406h11.901v49.075h-11.201l-22.262-29.403v29.403h-11.971V70.406H354.335z"/>
	<path d="M451.776,110.8h-21.212l-3.43,8.681h-13.162l21.072-49.075h13.162l20.582,49.075h-13.651L451.776,110.8z M447.996,100.999
		l-6.721-17.502l-6.86,17.502H447.996z"/>
	<path d="M523.665,119.481l-7.141-13.582h-0.28h-9.24v13.582h-12.812V70.406h22.052c13.021,0,20.442,6.301,20.442,17.222
		c0,7.421-3.08,12.881-8.751,15.822l10.221,16.032H523.665z M507.004,95.678h9.311c5.181,0,8.19-2.66,8.19-7.63
		c0-4.831-3.01-7.421-8.19-7.421h-9.311V95.678z"/>
	<path d="M583.862,80.277c-3.08,0-5.11,1.12-5.11,3.36c0,8.121,25.833,3.5,25.833,21.142c0,10.011-8.821,15.122-19.742,15.122
		c-8.19,0-16.731-3.01-22.612-7.841l4.971-10.011c5.04,4.34,12.671,7.42,17.781,7.42c3.781,0,6.161-1.4,6.161-3.99
		c0-8.331-25.833-3.291-25.833-20.652c0-9.171,7.771-14.981,19.603-14.981c7.211,0,14.491,2.24,19.602,5.531l-4.83,10.151
		C594.504,82.587,587.923,80.277,583.862,80.277z"/>
	<path d="M650.081,80.277c-3.08,0-5.11,1.12-5.11,3.36c0,8.121,25.833,3.5,25.833,21.142c0,10.011-8.821,15.122-19.742,15.122
		c-8.19,0-16.731-3.01-22.612-7.841l4.971-10.011c5.04,4.34,12.671,7.42,17.781,7.42c3.781,0,6.161-1.4,6.161-3.99
		c0-8.331-25.833-3.291-25.833-20.652c0-9.171,7.771-14.981,19.603-14.981c7.211,0,14.491,2.24,19.602,5.531l-4.83,10.151
		C660.723,82.587,654.142,80.277,650.081,80.277z"/>
	<path d="M748.224,94.908c0,14.352-11.341,25.133-26.533,25.133c-15.191,0-26.532-10.781-26.532-25.133
		c0-14.281,11.341-24.853,26.532-24.853C736.883,70.056,748.224,80.697,748.224,94.908z M708.319,94.979
		c0,7.981,6.23,14.141,13.512,14.141c7.351,0,13.231-6.16,13.231-14.141s-5.881-14.001-13.231-14.001S708.319,86.998,708.319,94.979
		z"/>
	<path d="M786.857,70.406l22.263,29.543V70.406h11.901v49.075H809.82l-22.263-29.403v29.403h-11.971V70.406H786.857z"/>
	<path d="M869.597,80.277c-3.08,0-5.11,1.12-5.11,3.36c0,8.121,25.833,3.5,25.833,21.142c0,10.011-8.821,15.122-19.742,15.122
		c-8.19,0-16.731-3.01-22.612-7.841l4.971-10.011c5.04,4.34,12.671,7.42,17.781,7.42c3.781,0,6.161-1.4,6.161-3.99
		c0-8.331-25.833-3.291-25.833-20.652c0-9.171,7.771-14.981,19.603-14.981c7.211,0,14.491,2.24,19.602,5.531l-4.83,10.151
		C880.238,82.587,873.657,80.277,869.597,80.277z"/>
</g>
</svg>
